<?xml version="1.0" encoding="utf-8"?>
<!-- Generator: Adobe Illustrator 19.0.0, SVG Export Plug-In . SVG Version: 6.00 Build 0)  -->
<svg version="1.1" id="Calque_1" xmlns="http://www.w3.org/2000/svg" xmlns:xlink="http://www.w3.org/1999/xlink" x="0px" y="0px"
	 viewBox="0 0 113.4 113.4" style="enable-background:new 0 0 113.4 113.4;" xml:space="preserve">
<path id="XMLID_11_" d="M110.6,0H2.8C1.3,0,0,1.3,0,2.8v79.4C0,83.8,1.3,85,2.8,85h11.3v23.8c0,2.5,2,4.5,4.5,4.5h5.2
	c2.5,0,4.5-2,4.5-4.5V85H85v23.8c0,2.5,2,4.5,4.5,4.5h5.2c2.5,0,4.5-2,4.5-4.5V85h11.3c1.6,0,2.8-1.3,2.8-2.8V2.8
	C113.4,1.3,112.1,0,110.6,0z M74,69H39.4v-6.3H74V69z M74,44.7H39.4v-6.3H74V44.7z M74,20.3H39.4V14H74V20.3z"/>
</svg>
