<?xml version="1.0" encoding="utf-8"?>
<!-- Generator: Adobe Illustrator 19.0.0, SVG Export Plug-In . SVG Version: 6.00 Build 0)  -->
<svg version="1.1" id="Calque_1" xmlns="http://www.w3.org/2000/svg" xmlns:xlink="http://www.w3.org/1999/xlink" x="0px" y="0px"
	 viewBox="0 0 113.4 113.4" style="enable-background:new 0 0 113.4 113.4;" xml:space="preserve">
<path id="XMLID_8_" d="M95.9,70.1c-6-5.4-13.1-9.4-21-11.8c8.4-5.8,13.8-15.4,13.8-26.3c0-17.7-14.3-32-32-32s-32,14.3-32,32
	c0,11,5.6,20.7,14.1,26.5C17.6,65.1,0,83.7,0,113.4h17.8c0-19.2,12.3-40,39.4-40c19.3,0,38.7,12.4,38.7,40h17.8
	C113.7,95.7,107.6,80.7,95.9,70.1z M56.8,17.8c7.8,0,14.2,6.4,14.2,14.2c0,7.8-6.4,14.2-14.2,14.2S42.6,39.8,42.6,32
	C42.6,24.1,49,17.8,56.8,17.8z"/>
</svg>
