<?xml version="1.0" encoding="utf-8"?>
<!-- Generator: Adobe Illustrator 19.0.0, SVG Export Plug-In . SVG Version: 6.00 Build 0)  -->
<svg version="1.1" id="Calque_1" xmlns="http://www.w3.org/2000/svg" xmlns:xlink="http://www.w3.org/1999/xlink" x="0px" y="0px"
	 viewBox="0 0 113.4 113.4" style="enable-background:new 0 0 113.4 113.4;" xml:space="preserve">
<path id="XMLID_86_" d="M44.8,16.6C60.4,16.6,73,29.3,73,44.8S60.4,73,44.8,73S16.6,60.4,16.6,44.8S29.3,16.6,44.8,16.6 M44.8,0
	C20.1,0,0,20.1,0,44.8s20.1,44.8,44.8,44.8s44.8-20.1,44.8-44.8S69.6,0,44.8,0L44.8,0z"/>
<rect id="XMLID_85_" x="68.5" y="77.2" transform="matrix(0.7071 0.7071 -0.7071 0.7071 89.6446 -37.132)" width="42.3" height="24.9"/>
<polygon id="XMLID_2_" points="59.8,39.8 49.8,39.8 49.8,29.9 39.8,29.9 39.8,39.8 29.9,39.8 29.9,49.8 39.8,49.8 39.8,59.8 
	49.8,59.8 49.8,49.8 59.8,49.8 "/>
</svg>
