<?xml version="1.0" encoding="utf-8"?>
<!-- Generator: Adobe Illustrator 19.0.0, SVG Export Plug-In . SVG Version: 6.00 Build 0)  -->
<svg version="1.1" id="Calque_1" xmlns="http://www.w3.org/2000/svg" xmlns:xlink="http://www.w3.org/1999/xlink" x="0px" y="0px"
	 viewBox="0 0 113.4 113.4" style="enable-background:new 0 0 113.4 113.4;" xml:space="preserve">
<path id="XMLID_11_" d="M106.7,56.9c0-17.3-5.3-31.9-15.4-42.3C82.2,5.2,69.9,0,56.7,0C43.4,0,31,5.2,21.8,14.7
	C11.7,25.1,6.3,39.7,6.3,56.9H0v56.5h23.5c10.4,0,18.8-8.5,18.8-18.8V75.7c0-10.4-8.5-18.8-18.8-18.8H22C22,37,32.8,15.7,56.7,15.7
	C73.8,15.7,91,28.4,91,56.9h-1.6c-10.4,0-18.8,8.5-18.8,18.8v18.8c0,10.4,8.5,18.8,18.8,18.8H113V56.9H106.7z M23.5,72.6
	c1.7,0,3.1,1.4,3.1,3.1v18.8c0,1.7-1.4,3.1-3.1,3.1h-7.8V72.6H23.5z M97.3,97.7h-7.8c-1.7,0-3.1-1.4-3.1-3.1V75.7
	c0-1.7,1.4-3.1,3.1-3.1h7.8V97.7z"/>
</svg>
