<svg id="Calque_1" data-name="Calque 1" xmlns="http://www.w3.org/2000/svg" viewBox="0 0 113.4 113.3"><defs><style>.cls-1{fill:none;}</style></defs><title>discussion</title><path class="cls-1" d="M6.4,38.5H43v-.1H6.4A6.44,6.44,0,0,0,0,44.8v.1A6.44,6.44,0,0,1,6.4,38.5Z" transform="translate(0 -0.1)"/><path d="M112.6,5.6A5.62,5.62,0,0,0,107.9.9,10.07,10.07,0,0,0,104,.1H52.4a10.07,10.07,0,0,0-3.9.8,5.62,5.62,0,0,0-4.7,4.7A10.06,10.06,0,0,0,43,9.5v23H58A12.38,12.38,0,0,1,70.4,44.8V65h9.9L98.8,83.5V65h5.1a10.06,10.06,0,0,0,3.9-.8,5.62,5.62,0,0,0,4.7-4.7,10.06,10.06,0,0,0,.8-3.9V9.5h.1A10.06,10.06,0,0,0,112.6,5.6Z" transform="translate(0 -0.1)"/><path d="M58,97.4A6.44,6.44,0,0,0,64.4,91V44.9A6.44,6.44,0,0,0,58,38.5v-.1H43v.1H6.4A6.44,6.44,0,0,0,0,44.9V91a6.44,6.44,0,0,0,6.4,6.4h5.1v16l10.1-10.1,5.9-5.9Z" transform="translate(0 -0.1)"/></svg>