<?xml version="1.0" encoding="utf-8"?>
<!-- Generator: Adobe Illustrator 19.0.0, SVG Export Plug-In . SVG Version: 6.00 Build 0)  -->
<svg version="1.1" id="Calque_1" xmlns="http://www.w3.org/2000/svg" xmlns:xlink="http://www.w3.org/1999/xlink" x="0px" y="0px"
	 viewBox="0 0 113.4 113.4" style="enable-background:new 0 0 113.4 113.4;" xml:space="preserve">
<path id="XMLID_51_" d="M12,84.3H5.7c-3.1,0-5.7-2.6-5.7-5.7l0-44.9c0-3.1,2.6-5.7,5.7-5.7H12c3.1,0,5.7,2.6,5.7,5.7v44.9
	C17.7,81.7,15.1,84.3,12,84.3z"/>
<g id="XMLID_55_">
	<polygon id="XMLID_14_" points="70.2,0 28.1,28.1 28.1,84.3 70.2,112.4 	"/>
</g>
<path id="XMLID_78_" d="M84.3,91.3v-14c4,0,7.1-1.9,9.6-5.7c2.6-4,4.1-9.7,4.1-15.7c0-7.7-2.9-20.7-13.7-20.7v-14
	c16.4,0,27.8,14.3,27.8,34.7C112.1,73.5,102.5,91.3,84.3,91.3z"/>
</svg>
