<?xml version="1.0" encoding="utf-8"?>
<!-- Generator: Adobe Illustrator 19.0.0, SVG Export Plug-In . SVG Version: 6.00 Build 0)  -->
<svg version="1.1" id="Calque_1" xmlns="http://www.w3.org/2000/svg" xmlns:xlink="http://www.w3.org/1999/xlink" x="0px" y="0px"
	 viewBox="0 0 113.4 113.4" style="enable-background:new 0 0 113.4 113.4;" xml:space="preserve">
<path id="XMLID_2_" d="M95.7,45.6c1-0.6,1.9-1.2,2.8-1.9c0.3-0.2,0.6-0.5,0.9-0.7c5.3-4.5,8.6-11.2,8.6-18.7
	c0-6.7-2.7-12.8-6.9-17.2c0,0,0,0,0,0c-0.5-0.5-1.1-1.1-1.7-1.6C98.7,5,98,4.4,97.2,3.9c-0.5-0.4-1.1-0.7-1.6-1
	c-0.7-0.4-1.4-0.7-2.1-1C90.7,0.7,87.6,0,84.3,0c-3.3,0-6.4,0.7-9.2,1.9c-0.7,0.3-1.4,0.6-2.1,1c-0.3,0.2-0.7,0.4-1,0.6
	c-6.8,4.3-11.4,12-11.4,20.8c0,7.5,3.4,14.3,8.6,18.7c1.2,1,2.4,1.9,3.8,2.6c0.3,0.2,0.6,0.3,0.9,0.5c-8.6,7.7-15.6,25.1-17.3,53.6
	C55.2,76.4,49.7,55,39.8,46c0.5-0.3,1.1-0.6,1.6-0.9c0.3-0.2,0.6-0.4,1-0.6c0.9-0.7,1.8-1.4,2.7-2.2c4.8-4.4,7.8-10.9,7.8-18
	c0-1.7-0.2-3.3-0.5-4.9c-0.2-1.2-0.6-2.3-1-3.5c-0.4-1.1-0.9-2.2-1.4-3.2c-0.5-1-1.2-2-1.8-3c-0.5-0.6-0.9-1.2-1.4-1.8
	c-2.8-3.2-6.4-5.6-10.5-6.9c-2.2-0.7-4.6-1.1-7-1.1s-4.8,0.4-7,1.1C17.9,2.4,14.3,4.8,11.5,8c-0.5,0.6-1,1.2-1.4,1.8
	c-0.7,0.9-1.3,1.9-1.8,3c-0.5,1-1,2.1-1.4,3.2s-0.7,2.3-1,3.5c-0.3,1.6-0.5,3.2-0.5,4.9c0,7.1,3,13.5,7.8,18
	c0.8,0.8,1.7,1.5,2.7,2.2c0.3,0.2,0.6,0.4,1,0.6c0.4,0.3,0.8,0.5,1.3,0.7C8,54.5,0,76.3,0,113.4h5.4h5.4h35.6h5.4h4.5h0.8h4.5H67
	h35.6h5.4h5.4C113.4,84.9,107.8,56.2,95.7,45.6z"/>
</svg>
